<svg width="26" height="26" viewBox="0 0 26 26" fill="none" xmlns="http://www.w3.org/2000/svg">
<path opacity="0.2" d="M13 26C20.1797 26 26 20.1797 26 13C26 5.8203 20.1797 0 13 0C5.8203 0 0 5.8203 0 13C0 20.1797 5.8203 26 13 26Z" fill="#F9B71C"/>
<path fill-rule="evenodd" clip-rule="evenodd" d="M13 20.9758C17.4049 20.9758 20.9757 17.4049 20.9757 13C20.9757 8.59511 17.4049 5.02425 13 5.02425C8.5951 5.02425 5.02423 8.59511 5.02423 13C5.02423 17.4049 8.5951 20.9758 13 20.9758Z" fill="#F9B71C" stroke="#F6EC34" stroke-width="1.13636"/>
<path fill-rule="evenodd" clip-rule="evenodd" d="M10.5515 10.5515H15.497V15.497H10.5515V10.5515Z" fill="#4E4E38" stroke="#F6EC34" stroke-width="0.5"/>
</svg>
